<svg xmlns="http://www.w3.org/2000/svg" xmlns:xlink="http://www.w3.org/1999/xlink" viewBox="0 0 586.07 292.1"><defs><clipPath id="clip-path"><rect y="36.91" width="586.07" height="220.52" fill="none"/></clipPath><clipPath id="clip-path-2"><path d="M217.16,36.91a9.79,9.79,0,0,0-9.78,9.78V62L136.17,81.1a9.56,9.56,0,0,0-6.74,11.68l4.13,15.41L84.42,136.56A9.41,9.41,0,0,0,81,149.41L114.81,208h166.1L311.53,245,339,208H471.27l33.83-58.59a9.43,9.43,0,0,0-3.44-12.85l-49.14-28.37,4.13-15.41A9.55,9.55,0,0,0,449.9,81.1L378.7,62V46.69a9.79,9.79,0,0,0-9.78-9.78Z" fill="none"/></clipPath><clipPath id="clip-path-3"><path d="M394.83,85.74,315.25,223.59a6.2,6.2,0,0,0,2.26,8.45l2.54,1.46L339,208H467.55l35-60.55a5.8,5.8,0,0,0-2.12-7.9L403.28,83.48a6.19,6.19,0,0,0-8.45,2.26" fill="none"/></clipPath><linearGradient id="linear-gradient" x1="-8.4" y1="31.05" x2="-8.29" y2="31.05" gradientTransform="matrix(1670.51, 0, 0, -1670.51, 14343.47, 52031.31)" gradientUnits="userSpaceOnUse"><stop offset="0" stop-color="#f19843"/><stop offset="1" stop-color="#ea763d"/></linearGradient><clipPath id="clip-path-5"><path d="M396.78,92.59,361.3,154a6.18,6.18,0,0,0,2.27,8.45L442.4,208h19.25l33.76-58.47a6.19,6.19,0,0,0-2.26-8.45L405.23,90.32a6.18,6.18,0,0,0-8.45,2.27" fill="none"/></clipPath><linearGradient id="linear-gradient-2" x1="-7.99" y1="35.82" x2="-7.88" y2="35.82" gradientTransform="matrix(0, -778.54, -778.54, 0, 28312.38, -6039.07)" gradientUnits="userSpaceOnUse"><stop offset="0" stop-color="#f6ae40"/><stop offset="1" stop-color="#fbc418"/></linearGradient><clipPath id="clip-path-6"><path d="M183.14,83.28,86,139.35a6.2,6.2,0,0,0-2.26,8.45L118.53,208h143.3L191.05,85.4a5.81,5.81,0,0,0-7.91-2.12" fill="none"/></clipPath><linearGradient id="linear-gradient-3" x1="-7.31" y1="31.06" x2="-7.2" y2="31.06" gradientTransform="matrix(1669.21, 0, 0, -1669.21, 12286.94, 51989.64)" gradientUnits="userSpaceOnUse"><stop offset="0" stop-color="#4dab4d"/><stop offset="1" stop-color="#2a8937"/></linearGradient><clipPath id="clip-path-8"><path d="M455.55,166.1a1.06,1.06,0,0,0-1,1.35,1.53,1.53,0,0,0,.86,1c22.6,9.6,24.37-17.64,35-21.31a1.05,1.05,0,0,0,0-2,11.35,11.35,0,0,0-3.61-.63c-11.38,0-12.65,21.21-31.22,21.63" fill="none"/></clipPath><linearGradient id="linear-gradient-4" x1="-2.09" y1="47.61" x2="-1.97" y2="47.61" gradientTransform="translate(11418.77 624.48) rotate(90) scale(229.9)" gradientUnits="userSpaceOnUse"><stop offset="0" stop-color="#ed8640"/><stop offset="1" stop-color="#e9753d"/></linearGradient><clipPath id="clip-path-9"><path d="M440.05,159.83a1.11,1.11,0,0,0-1.05,1.42,1.6,1.6,0,0,0,.9,1c23.73,10.08,25.59-18.52,36.72-22.38a1.11,1.11,0,0,0,0-2.11,11.91,11.91,0,0,0-3.79-.66c-11.95,0-13.28,22.27-32.78,22.71" fill="none"/></clipPath><linearGradient id="linear-gradient-5" x1="-2.08" y1="46.37" x2="-1.97" y2="46.37" gradientTransform="translate(11651.47 639.08) rotate(90) scale(241.39)" xlink:href="#linear-gradient-4"/><clipPath id="clip-path-10"><path d="M424.93,153.72a1.17,1.17,0,0,0-1.1,1.49,1.7,1.7,0,0,0,.94,1.07c24.92,10.58,26.87-19.45,38.56-23.5a1.17,1.17,0,0,0,0-2.22,12.84,12.84,0,0,0-4-.7c-12.58,0-13.85,23.4-34.39,23.86" fill="none"/></clipPath><linearGradient id="linear-gradient-6" x1="-2.09" y1="45.22" x2="-1.97" y2="45.22" gradientTransform="translate(11907.81 658.9) rotate(90) scale(253.52)" xlink:href="#linear-gradient-4"/><clipPath id="clip-path-11"><path d="M180.84,90.32,92.93,141.08a6.18,6.18,0,0,0-2.26,8.45L124.43,208h19.25l79.18-45.71a5.81,5.81,0,0,0,2.12-7.91L189.3,92.59a6.19,6.19,0,0,0-8.46-2.27" fill="none"/></clipPath><linearGradient id="linear-gradient-7" x1="-6.49" y1="28.26" x2="-6.38" y2="28.26" gradientTransform="matrix(0, 497.55, 497.55, 0, -13905.28, 3337.04)" gradientUnits="userSpaceOnUse"><stop offset="0" stop-color="#81bb58"/><stop offset="1" stop-color="#56ae53"/></linearGradient><clipPath id="clip-path-13"><path d="M120.57,135.09c-4.28.09-14,1.84-14,1.84s1.46,10.26,3,14.36c2.51,6.67,6.65,13.49,12,18.28,4.82,4.29,12.1,7.59,18.74,6.76,3.8-.48,6.91-2.54,9.6-5.15-3.79-16.65-18.18-29.54-36.11-32l1.27,0c18.78,0,34.32,13.18,37,30.34.61-1.06,1.26-2.1,1.81-3.19l0-.06a1.33,1.33,0,0,0,.09-.35,20.08,20.08,0,0,0,1-11.76c-1.13-4.64-4.41-8.37-8-11.38a33.72,33.72,0,0,0-13.17-6.48,43,43,0,0,0-11.12-1.24l-2.17,0" fill="none"/></clipPath><linearGradient id="linear-gradient-8" x1="-9.21" y1="34.21" x2="-9.09" y2="34.21" gradientTransform="matrix(0, -377.5, -377.5, 0, 13046.28, -3299.1)" gradientUnits="userSpaceOnUse"><stop offset="0" stop-color="#3ba743"/><stop offset="1" stop-color="#2a8937"/></linearGradient><clipPath id="clip-path-14"><path d="M319.75,62l-21.6,80.62a6.2,6.2,0,0,0,4.38,7.58l114.1,30.57a6.66,6.66,0,0,0,8.15-4.71l21.48-80.16a6.19,6.19,0,0,0-4.37-7.58L327.33,57.62a5.86,5.86,0,0,0-1.6-.21,6.21,6.21,0,0,0-6,4.58" fill="none"/></clipPath><linearGradient id="linear-gradient-9" x1="-8.86" y1="33.56" x2="-8.74" y2="33.56" gradientTransform="matrix(1018.63, 0, 0, -1018.63, 9336.2, 34300.83)" gradientUnits="userSpaceOnUse"><stop offset="0" stop-color="#e75b81"/><stop offset="1" stop-color="#f2999f"/></linearGradient><clipPath id="clip-path-15"><path d="M262.5,50.72,137,84.34a6.19,6.19,0,0,0-4.37,7.57L163.77,208H280.91l28.49,34.38,4.61-1.23a4.11,4.11,0,0,0,.46-.15l4.11-5.52a6,6,0,0,0-.2-1.91L270.65,55.43a6.64,6.64,0,0,0-8.15-4.71" fill="none"/></clipPath><linearGradient id="linear-gradient-10" x1="-7.55" y1="30.93" x2="-7.44" y2="30.93" gradientTransform="matrix(1646.43, 0, 0, -1646.43, 12567.13, 51070)" xlink:href="#linear-gradient-2"/><clipPath id="clip-path-17"><path d="M258.74,57.62,144.19,88.31a6.19,6.19,0,0,0-4.37,7.58l21.6,80.62a6.18,6.18,0,0,0,7.57,4.37L283.1,150.31a6.65,6.65,0,0,0,4.7-8.15L266.32,62a6.19,6.19,0,0,0-6-4.58,6,6,0,0,0-1.61.21" fill="none"/></clipPath><linearGradient id="linear-gradient-11" x1="-5.28" y1="29.98" x2="-5.17" y2="29.98" gradientTransform="matrix(0, 1094.05, 1094.05, 0, -32586.91, 5839.17)" gradientUnits="userSpaceOnUse"><stop offset="0" stop-color="#fdf187"/><stop offset="1" stop-color="#fccc6f"/></linearGradient><clipPath id="clip-path-18"><path d="M184.06,146a25.36,25.36,0,1,1,24.58,19,25.64,25.64,0,0,1-24.58-19m10-61.25a.7.7,0,0,0-.51.75c3.21,29.18-.24,33.19-17.38,20.66a.42.42,0,0,0-.59.59c12.74,17.6,8.27,20.76-22.34,17.25a.42.42,0,0,0-.21.8c28.29,12.32,30.53,17.35,10.73,26.23a.42.42,0,0,0,.21.8c22.22-2.34,22.14,3.55,2,30.43,27.81-21,33-20.32,29.91,4.79,9.36-22.44,14.28-21.48,26.68,7.1l1.15-.31c-3.42-30.87.36-34.17,19.58-19.57-15.17-20.18-11-23.38,23.53-19.19-32-13.69-34-18.61-10.82-28.49-25,3.1-25.72-2.15-4.79-30.12-27.82,21-33,20.33-29.91-4.78-9.33,22.17-14.22,21.48-26.44-6.54a.71.71,0,0,0-.64-.43.57.57,0,0,0-.18,0" fill="none"/></clipPath><linearGradient id="linear-gradient-12" x1="-5.29" y1="29.81" x2="-5.18" y2="29.81" gradientTransform="matrix(0, 967.88, 967.88, 0, -28646.98, 5207.31)" gradientUnits="userSpaceOnUse"><stop offset="0" stop-color="#f5aa3b"/><stop offset="1" stop-color="#fbc418"/></linearGradient><clipPath id="clip-path-19"><path d="M206.51,117.49a22.08,22.08,0,0,0-9.35,40.74,8.53,8.53,0,0,0,.16-2.4c-.2-4-.39-4-3.17-12-2.19-6.29,1-11.95,2.76-13.39a.4.4,0,0,1,.65.38,29.81,29.81,0,0,0,.16,10.21c1.19,5.19,4.76,7,7.94,12a20,20,0,0,1,2.82,8.1c2.88-.2,6.58-.55,6.58-.55a21.61,21.61,0,0,0,4.35-1.89,1.22,1.22,0,0,1,.16-.54c3.86-7.26-5.3-13.24-1.43-20.5a12.7,12.7,0,0,1,1.23-1.81,6.33,6.33,0,0,0-.72,1.76c-1.5,5.61,5.2,10.41,7.09,15.68a22.08,22.08,0,0,0-17.08-35.9c-.71,0-1.42,0-2.15.11" fill="none"/></clipPath><linearGradient id="linear-gradient-13" x1="-3.5" y1="27.29" x2="-3.39" y2="27.29" gradientTransform="matrix(0, 386.98, 386.98, 0, -10354.16, 1472.81)" xlink:href="#linear-gradient-12"/><clipPath id="clip-path-20"><path d="M403.81,87.39a14.58,14.58,0,0,1-.47,4.94c-5.68,18.1-29.84,15.39-35.8,39.49-2.47,10-.74,22.27,4.39,30.66a.94.94,0,0,0,1.7-.77c-1-3.4-3.33-8.14-1.18-16.2,2.35-8.85,6.17-12.83,9.95-14.69.77-.38,1.7-.09,1.58.75-.74,5.18-.46,9.36.77,12.21a.94.94,0,0,0,1.8-.2c.25-1.57.63-3.67,1.11-5.46a22.16,22.16,0,0,1,11.81-14.71.94.94,0,0,1,1.27,1.24,9.55,9.55,0,0,0-.69,1.82c-2.18,8.15,8.84,18.59,5.43,31.34a19.53,19.53,0,0,1-5.57,8.84.94.94,0,0,0,1.08,1.52c8.64-4.72,18.07-11.95,20.72-21.88,2.15-8,.45-15.62-2.26-22.66a.94.94,0,0,0-1.75,0,12.57,12.57,0,0,1-7.08,7.51.94.94,0,0,1-1.22-1.23A94.61,94.61,0,0,0,413,119.48a35.26,35.26,0,0,0-7.59-32.76.94.94,0,0,0-1.64.67" fill="none"/></clipPath><linearGradient id="linear-gradient-14" x1="-4.76" y1="27.24" x2="-4.65" y2="27.24" gradientTransform="matrix(0, 724.38, 724.38, 0, -19340.65, 3535.46)" gradientUnits="userSpaceOnUse"><stop offset="0" stop-color="#de251e"/><stop offset="1" stop-color="#e45157"/></linearGradient><clipPath id="clip-path-21"><path d="M217.16,40.51A6.21,6.21,0,0,0,211,46.69V208h69.94L311.53,245,339,208H375.1V48.24a7.75,7.75,0,0,0-7.73-7.73Z" fill="none"/></clipPath><linearGradient id="linear-gradient-15" x1="-7.29" y1="32.99" x2="-7.18" y2="32.99" gradientTransform="matrix(0, -1543.52, -1543.52, 0, 51218.4, -11034.77)" gradientUnits="userSpaceOnUse"><stop offset="0" stop-color="#313e89"/><stop offset="1" stop-color="#3e5598"/></linearGradient><clipPath id="clip-path-23"><path d="M223.92,47.05a6.19,6.19,0,0,0-6.19,6.19v85.54a6.19,6.19,0,0,0,6.19,6.19H362.16a6.19,6.19,0,0,0,6.19-6.19V54.71a7.66,7.66,0,0,0-7.66-7.66Z" fill="none"/></clipPath><linearGradient id="linear-gradient-16" x1="-8.21" y1="34.15" x2="-8.09" y2="34.15" gradientTransform="matrix(0, -866.06, -866.06, 0, 29872.96, -6961.23)" gradientUnits="userSpaceOnUse"><stop offset="0" stop-color="#4486bf"/><stop offset="1" stop-color="#4362a2"/></linearGradient><clipPath id="clip-path-25"><rect y="36.91" width="586.07" height="220.52" fill="none"/></clipPath></defs><title>Asset 1</title><g id="Layer_2" data-name="Layer 2"><g id="Layer_1-2" data-name="Layer 1"><g id="RGB_Logo_TCGplayer_Primary" data-name="RGB Logo_TCGplayer_Primary"><g clip-path="url(#clip-path)"><g clip-path="url(#clip-path-2)"><path d="M417.5,292.1a9,9,0,0,1-4.49-1.21L385.5,275l-15.39-4.12a9.73,9.73,0,0,1-1.19.07H217.16a9.73,9.73,0,0,1-1.19-.07L200.58,275l-27.51,15.88a9,9,0,0,1-4.49,1.21,9.42,9.42,0,0,1-2.35-.31,9,9,0,0,1-5.47-4.19L81,149.41a9.41,9.41,0,0,1,3.44-12.85l49.14-28.37-4.13-15.41a9.56,9.56,0,0,1,6.74-11.68L207.38,62V46.69a9.79,9.79,0,0,1,9.78-9.78H368.92a9.79,9.79,0,0,1,9.78,9.78V62L449.9,81.1a9.55,9.55,0,0,1,6.75,11.68l-4.13,15.41,49.14,28.37a9.43,9.43,0,0,1,3.44,12.85L425.32,287.6a9.07,9.07,0,0,1-7.82,4.5" fill="#fff"/></g><g clip-path="url(#clip-path-3)"><rect x="313.55" y="82.65" width="190.56" height="150.85" fill="url(#linear-gradient)"/></g><g clip-path="url(#clip-path-2)"><path d="M500.05,139.35,402.94,83.28A5.81,5.81,0,0,0,395,85.4l-80,138.53a5.81,5.81,0,0,0,2.12,7.91l97.45,56.26a5.81,5.81,0,0,0,7.91-2.11L502.31,147.8A6.21,6.21,0,0,0,500.05,139.35Z" fill="none" stroke="#221f1f" stroke-miterlimit="10" stroke-width="2.23"/></g><g clip-path="url(#clip-path-5)"><rect x="359.59" y="89.49" width="137.52" height="118.51" fill="url(#linear-gradient-2)"/></g><g clip-path="url(#clip-path-6)"><rect x="82.07" y="82.51" width="179.77" height="125.5" fill="url(#linear-gradient-3)"/></g><g clip-path="url(#clip-path-2)"><path d="M183.14,83.28,86,139.35a6.2,6.2,0,0,0-2.26,8.45L163.55,286a5.81,5.81,0,0,0,7.91,2.11l97.45-56.26a5.81,5.81,0,0,0,2.12-7.91l-80-138.53A5.81,5.81,0,0,0,183.14,83.28Z" fill="none" stroke="#221f1f" stroke-miterlimit="10" stroke-width="2.23"/></g><g clip-path="url(#clip-path-8)"><rect x="454.36" y="144.46" width="37" height="33.56" fill="url(#linear-gradient-4)"/></g><g clip-path="url(#clip-path-9)"><rect x="438.79" y="137.12" width="38.85" height="35.23" fill="url(#linear-gradient-5)"/></g><g clip-path="url(#clip-path-10)"><rect x="423.61" y="129.86" width="40.8" height="37" fill="url(#linear-gradient-6)"/></g><g clip-path="url(#clip-path-11)"><rect x="67.21" y="58.19" width="181.11" height="181.11" transform="translate(-58.97 155.12) rotate(-45)" fill="url(#linear-gradient-7)"/></g><g clip-path="url(#clip-path-2)"><path d="M448.58,84.21,323.13,50.6A6.21,6.21,0,0,0,315.55,55L267.7,233.57a6.2,6.2,0,0,0,4.37,7.58L398,274.88a6.19,6.19,0,0,0,7.58-4.37L453.29,92.36a6.67,6.67,0,0,0-4.71-8.15" fill="#df2c2f"/><path d="M449,84.34,323.58,50.72a6.67,6.67,0,0,0-8.15,4.71L267.82,233.12a6.68,6.68,0,0,0,4.7,8.15l125,33.49a6.68,6.68,0,0,0,8.15-4.7L453.41,91.91A6.2,6.2,0,0,0,449,84.34Z" fill="none" stroke="#221f1f" stroke-miterlimit="10" stroke-width="2.48"/></g><g clip-path="url(#clip-path-13)"><rect x="106.61" y="135.06" width="49.31" height="42.1" fill="url(#linear-gradient-8)"/></g><g clip-path="url(#clip-path-14)"><rect x="284.21" y="25.37" width="176" height="188.37" transform="translate(106.55 406.37) rotate(-65)" fill="url(#linear-gradient-9)"/></g><g clip-path="url(#clip-path-15)"><rect x="131.78" y="50.49" width="186.83" height="191.89" fill="url(#linear-gradient-10)"/></g><g clip-path="url(#clip-path-2)"><path d="M262.5,50.72,137,84.34a6.19,6.19,0,0,0-4.37,7.57L180.4,270.06a6.67,6.67,0,0,0,8.15,4.7l125-33.49a6.67,6.67,0,0,0,4.71-8.15L270.65,55.43A6.67,6.67,0,0,0,262.5,50.72Z" fill="none" stroke="#221f1f" stroke-miterlimit="10" stroke-width="2.48"/></g><g clip-path="url(#clip-path-17)"><rect x="138.93" y="57.41" width="149.82" height="124.36" fill="url(#linear-gradient-11)"/></g><g clip-path="url(#clip-path-18)"><rect x="152.61" y="84.75" width="114.25" height="109.42" fill="url(#linear-gradient-12)"/></g><g clip-path="url(#clip-path-19)"><rect x="185.63" y="117.38" width="45.45" height="43.75" fill="url(#linear-gradient-13)"/></g><g clip-path="url(#clip-path-20)"><rect x="365.07" y="86.4" width="58.79" height="82.3" fill="url(#linear-gradient-14)"/></g><g clip-path="url(#clip-path-21)"><rect x="210.97" y="40.51" width="164.13" height="204.45" fill="url(#linear-gradient-15)"/></g><g clip-path="url(#clip-path-2)"><rect x="210.97" y="40.51" width="164.13" height="226.86" rx="6.19" ry="6.19" fill="none" stroke="#221f1f" stroke-miterlimit="10" stroke-width="2.48"/></g><g clip-path="url(#clip-path-23)"><rect x="217.73" y="47.05" width="150.61" height="97.91" fill="url(#linear-gradient-16)"/></g><g clip-path="url(#clip-path-2)"><path d="M254,102l45.64,32.34a1.11,1.11,0,0,0,1.53-1.57L282.4,107.58a1.12,1.12,0,0,1,.45-1.68l52.37-22.82a1.11,1.11,0,0,0,.12-2l-34.71-20A1.12,1.12,0,0,1,301,59l61.48-11.77a7.4,7.4,0,0,0-1.77-.22H225.39a7.5,7.5,0,0,0-2.52.44l60.27,30.78a1.11,1.11,0,0,1,.13,1.91l-29.26,20a1.11,1.11,0,0,0,0,1.82" fill="#badbf3"/></g><g clip-path="url(#clip-path-25)"><path d="M192.06,255l-11.58,2.41L178.17,255a42.54,42.54,0,0,1-10.18,1.2c-9,0-16.68-1.85-23.08-5.52l-11.12,2.62c-4.18,1-8.08,1.72-11.58,2.18a87.93,87.93,0,0,1-11.39.72c-9.44,0-18-1.78-24.56-5.51s-14.53-11.39-14.53-11.39v16.09H15.86V226.25l6.13-1V204H0V158.31H87.54l2.51,4.5,1-.54a47.67,47.67,0,0,1,21.57-4.77,84.91,84.91,0,0,1,11.12.68,76,76,0,0,1,10.58,2.22l10.19,2.84v1.85a41.66,41.66,0,0,1,9.62-4.82,51.45,51.45,0,0,1,16.92-2.77,91.92,91.92,0,0,1,17.12,1.55l.16,0h44.46a56.81,56.81,0,0,1,17.61,2.43v-2.43h54v27.79l-5.39,1.49v23.32h20.17l19.87-52.61H538.27A66.5,66.5,0,0,1,551,160.16a39.1,39.1,0,0,1,11.17,4,28.47,28.47,0,0,1,8.32,6.73,28.88,28.88,0,0,1,5.3,9.39,33.68,33.68,0,0,1,1.74,11.09,32.53,32.53,0,0,1-3.16,14.54,31.85,31.85,0,0,1-3.8,6c.67,1.16,1.32,2.37,1.92,3.64l3.2,6.91c.43.93.79,1.62,1.07,2.12l9.3,1.63V255Z" fill="#fff"/><path d="M574.55,227.86a20.52,20.52,0,0,1-2.2-3.92l-3.19-6.88a41.86,41.86,0,0,0-3.2-5.62,27.31,27.31,0,0,0,5.11-7.2,28.92,28.92,0,0,0,2.77-12.9,30.17,30.17,0,0,0-1.53-9.88,25.57,25.57,0,0,0-4.63-8.22,25,25,0,0,0-7.28-5.87,35.42,35.42,0,0,0-10.12-3.58,62.06,62.06,0,0,0-12-1H341.66L321.8,215.37H295.37V185.53l5.39-1.49V162.77H254.13V167c-5.56-2.86-12.58-4.26-21.31-4.26H188.15a115.79,115.79,0,0,0-17.07-1.58,47.88,47.88,0,0,0-15.71,2.57,38.7,38.7,0,0,0-14.05,8.66l-.48.49v-6.86L133.35,164a75.28,75.28,0,0,0-10.07-2.12,81,81,0,0,0-10.63-.65A42.85,42.85,0,0,0,90,167.1a37.35,37.35,0,0,0-6.15,4.68V162H3.7V200.3h22v28.07l-6.13,1v22.29H68V227.05c3,7.24,13.62,16.73,20.06,20.4,6,3.42,13.94,5,22.73,5a84.16,84.16,0,0,0,10.91-.7,112.37,112.37,0,0,0,11.21-2.11l7.9-1.87V243.1c6.7,6.23,15.81,9.39,27.15,9.39a38.3,38.3,0,0,0,11.34-1.66l2.42,2.56,10.05-2.07H582.38V229.24Z" fill="#1c1c1a"/><path d="M171.08,168.59a76.19,76.19,0,0,1,21.17,2.8l2.06.6v19.39h-12l-.58-2.1a21.42,21.42,0,0,0-2.3-5.77,6.6,6.6,0,0,0-2.7-2.42,11.21,11.21,0,0,0-4.81-.85,11,11,0,0,0-7.08,2.44c-2.12,1.68-3.85,4.52-5.15,8.44a52.41,52.41,0,0,0-2.08,16.1A67.19,67.19,0,0,0,159.05,222a20.65,20.65,0,0,0,3.95,8.89,6.68,6.68,0,0,0,5.4,2.59c3.08,0,4-1.19,4.35-1.58.68-.86,1.5-2.72,1.5-6.7v-1.93a37.28,37.28,0,0,0-.22-5.06,4.2,4.2,0,0,0-.35-1.33,1.4,1.4,0,0,0-.45-.42,13,13,0,0,0-2.42-.89l-2-.61v-8.33h31.66v8.33l-2,.61a5.7,5.7,0,0,0-2.19,1,2.37,2.37,0,0,0-.52,1.16,20.79,20.79,0,0,0-.27,3.91V243l-11.13,2.32-3-3.2a29.41,29.41,0,0,1-13.28,3c-10.7,0-18.86-3.25-24.25-9.66s-8-15.68-8-28a49.45,49.45,0,0,1,2.77-17.2,32.5,32.5,0,0,1,7.87-12.45,31.12,31.12,0,0,1,11.38-7,40.31,40.31,0,0,1,13.27-2.16" fill="#fff"/><path d="M112.65,168.59a74.71,74.71,0,0,1,9.65.58,66.81,66.81,0,0,1,9.06,1.91l2.08.58v19.72H121.37l-.48-2.26c-.69-3.26-1.73-5.63-3.1-7a6.39,6.39,0,0,0-4.84-1.84c-4.29,0-7.34,1.95-9.59,6.16-2.5,4.68-3.76,11.88-3.76,21.43,0,8.85,1.15,15.55,3.42,19.93,2,3.88,4.7,5.68,8.46,5.68a10.08,10.08,0,0,0,4.68-.9,6.28,6.28,0,0,0,2.58-2.6,23.86,23.86,0,0,0,2.11-6.22l.51-2.23h12.08V242l-2.2.52c-3.78.89-7.3,1.56-10.47,2a76.57,76.57,0,0,1-10,.63c-7.49,0-13.76-1.41-18.62-4.17a25.65,25.65,0,0,1-11-12.87c-2.25-5.45-3.39-12.35-3.39-20.53a48.64,48.64,0,0,1,4-20.31,30.78,30.78,0,0,1,12.08-13.8,35.67,35.67,0,0,1,18.82-4.82" fill="#fff"/><path d="M76.45,169.4v23.5h-12l-.58-2.09c-.62-2.22-1.11-3.86-1.47-4.9a11.81,11.81,0,0,0-1-2.23,7.07,7.07,0,0,0-1-1.35,4.65,4.65,0,0,0-.94-.71,4.84,4.84,0,0,0-1.31-.39,17.88,17.88,0,0,0-2.87-.18h-.79V228.7c0,1.69,0,3,.13,3.77a4.5,4.5,0,0,0,.3,1.35,1.9,1.9,0,0,0,.33.5,3,3,0,0,0,.79.43,8.78,8.78,0,0,0,2.12.5l2.46.35v8.68H27v-8.63l2.39-.39a10.16,10.16,0,0,0,2.62-.71,1.23,1.23,0,0,0,.59-.48,4,4,0,0,0,.39-1.55c.1-1,.14-2.3.14-3.82V181.05H31.84a9.1,9.1,0,0,0-3.52.47,4.24,4.24,0,0,0-1.7,1.37,10.76,10.76,0,0,0-1.6,3.23c-.55,1.62-1,3.18-1.35,4.6l-.53,2.18h-12V169.4H76.45" fill="#fff"/><path d="M386.24,235.06a5.1,5.1,0,0,1-2.15-.86,4.4,4.4,0,0,1-1.17-1.57,35.31,35.31,0,0,1-1.7-4.9l-17.06-57.57H346.78l-21.51,57a30.35,30.35,0,0,1-2.21,4.95,8.33,8.33,0,0,1-1.88,2.24,3.38,3.38,0,0,1-1.8.71l-2.52.28v8.63h26.95v-8.74l-2.63-.18c-2.19-.14-2.56-.87-2.56-2.43a14,14,0,0,1,.37-3.31,36.81,36.81,0,0,1,1.07-3.6l1-2.85h17.16l.78,2.82c.51,1.84.88,3.38,1.09,4.55a16.73,16.73,0,0,1,.3,2.94c0,.86-.25,1.09-.33,1.17a4,4,0,0,1-2.26.72l-2.5.29v8.62h33.19v-8.4Zm-41.31-23.72,5.69-16,4.56,16Z" fill="#fff"/><path d="M502.46,170.16v21.51H490.8l-.66-1.9a26.87,26.87,0,0,0-2.45-5.74,6.35,6.35,0,0,0-1.89-1.84c-.15-.09-1.07-.56-4-.56h-8.06V200h3.77a5,5,0,0,0,2.18-.33,2.2,2.2,0,0,0,.89-.94,15.76,15.76,0,0,0,1.28-3.77l.53-2.15h10.67v25.9H482.4l-.52-2.16a15.19,15.19,0,0,0-1.27-3.7,2.9,2.9,0,0,0-.92-1.09,5.35,5.35,0,0,0-2.16-.29h-3.77v21h8a13.4,13.4,0,0,0,2.43-.18,3.69,3.69,0,0,0,1.25-.44,4.78,4.78,0,0,0,1.16-1,10.49,10.49,0,0,0,1.22-1.61,19,19,0,0,0,1.23-2.51c.45-1.1,1-2.66,1.54-4.62l.58-2.05h11.93l-1.24,23.85H447.1v-9.6l2.08-.56a10.73,10.73,0,0,0,2.33-.84.9.9,0,0,0,.41-.39,4.38,4.38,0,0,0,.38-1.58c.09-.95.14-2.2.14-3.7l.21-41.7c0-1.47,0-2.71-.11-3.72a3.88,3.88,0,0,0-.34-1.51,1.21,1.21,0,0,0-.52-.49,9.6,9.6,0,0,0-2.27-.84l-2.1-.55v-8.28h55.15" fill="#fff"/><path d="M443.74,170.16v8.37l-2.21.49a4.61,4.61,0,0,0-1.38.49,6.78,6.78,0,0,0-1.31,1.15,22,22,0,0,0-2.19,3c-.92,1.42-2,3.31-3.22,5.62l-14,26.34v13a36.45,36.45,0,0,0,.14,3.71,4.54,4.54,0,0,0,.29,1.33,1.57,1.57,0,0,0,.33.49,2.67,2.67,0,0,0,.77.43,9,9,0,0,0,2.09.48l2.42.35v8.55H392.29v-8.48l2.34-.4a10.63,10.63,0,0,0,2.59-.7,1,1,0,0,0,.53-.42,4.27,4.27,0,0,0,.42-1.57c.1-1,.16-2.26.16-3.77v-13l-13.26-28c-1.12-2.33-2-4.09-2.64-5.2a13.58,13.58,0,0,0-1.61-2.44,2.72,2.72,0,0,0-.7-.63,3.4,3.4,0,0,0-1-.22l-2.47-.3v-8.61h32.23v8.58l-2.45.32c-1.39.18-1.39.49-1.39,1a6.78,6.78,0,0,0,.47,2.17,48.47,48.47,0,0,0,1.91,4.53l6,13.38,6.47-13a25.59,25.59,0,0,0,1.69-4.09,10.07,10.07,0,0,0,.42-2.84,1.37,1.37,0,0,0-.2-.83,1.91,1.91,0,0,0-1-.3l-2.66-.14v-8.78h25.65" fill="#fff"/><path d="M293.36,170.16v8.25l-2.06.57a10.56,10.56,0,0,0-2.25.84,1.28,1.28,0,0,0-.53.5,4.07,4.07,0,0,0-.39,1.47,35.75,35.75,0,0,0-.16,3.67v46.89l6.13-.13a8.69,8.69,0,0,0,3.35-.49,5.07,5.07,0,0,0,2-1.51,12,12,0,0,0,1.84-3.39,10.46,10.46,0,0,0,.66-2.22l.47-1.84h12.1l-1.4,21.15H261.53v-8.26l2.08-.57a10.16,10.16,0,0,0,2.28-.84,1,1,0,0,0,.46-.44,4.38,4.38,0,0,0,.38-1.58c.09-.95.14-2.19.14-3.7v-43q0-2.2-.12-3.72a4.17,4.17,0,0,0-.33-1.51,1.33,1.33,0,0,0-.53-.49,9.27,9.27,0,0,0-2.26-.84l-2.1-.55v-8.28h31.83" fill="#fff"/><path d="M572.65,235a5.76,5.76,0,0,1-3.32-1.9,24.15,24.15,0,0,1-3.69-6.1l-3.16-6.81a30.64,30.64,0,0,0-4.82-7.44,19.1,19.1,0,0,0-2.66-2.41,29.47,29.47,0,0,0,4-2.63,19.71,19.71,0,0,0,5.41-6.78,21.53,21.53,0,0,0,2-9.63,23,23,0,0,0-1.13-7.48A18.47,18.47,0,0,0,562,178a18.1,18.1,0,0,0-5.19-4.17,28.29,28.29,0,0,0-8-2.81,55.22,55.22,0,0,0-10.56-.88H506.36v8.28l2.1.55a9.6,9.6,0,0,1,2.27.84,1.27,1.27,0,0,1,.52.49,4.17,4.17,0,0,1,.33,1.51q.12,1.51.12,3.72v43c0,1.5-.05,2.75-.14,3.7a4.38,4.38,0,0,1-.38,1.58.81.81,0,0,1-.41.39,11,11,0,0,1-2.33.84l-2.08.57v8.26h31.83v-8.29l-2.1-.54a7,7,0,0,1-2.52-1,1.62,1.62,0,0,1-.49-.94,23.2,23.2,0,0,1-.28-4.6V215.32h.08a7.75,7.75,0,0,1,2.91.35A4.48,4.48,0,0,1,537.3,217a25.89,25.89,0,0,1,2.65,4.83l3.9,8.55a75.49,75.49,0,0,0,6.82,12.35l.84,1.16H575v-8.47ZM545,197.47a8.09,8.09,0,0,1-1.55,3.38,7.17,7.17,0,0,1-3,2.14,14.82,14.82,0,0,1-5.52.86H532.8v-22.2l2.83,0c3.41,0,5.84.82,7.43,2.51s2.43,4.49,2.43,8.25a23.43,23.43,0,0,1-.51,5.08" fill="#fff"/><path d="M253.38,175.21c-4.73-3.4-11.45-5.05-20.56-5.05H201v8.28l2.1.55a9.27,9.27,0,0,1,2.26.84,1.33,1.33,0,0,1,.53.49,4.17,4.17,0,0,1,.33,1.51q.12,1.51.12,3.72v43c0,1.5,0,2.75-.14,3.7a4.38,4.38,0,0,1-.38,1.58.8.8,0,0,1-.42.39,10.57,10.57,0,0,1-2.32.84l-2.08.57v8.26h32.48v-8.46l-2.32-.42a10.38,10.38,0,0,1-2.53-.68,1.73,1.73,0,0,1-.62-.48,2.78,2.78,0,0,1-.36-1.09,25.3,25.3,0,0,1-.21-4.16v-13c1.52.05,3.23.07,5.12.07a36.93,36.93,0,0,0,15.14-2.77,21.37,21.37,0,0,0,9.78-8.52,24.72,24.72,0,0,0,3.35-13c0-7.19-2.51-12.64-7.46-16.19M238.67,199.9a6.23,6.23,0,0,1-3,3.16,15.87,15.87,0,0,1-6.71,1.14h-1.48V181.65l2.57,0a13.93,13.93,0,0,1,5.84,1,5.84,5.84,0,0,1,2.82,3,17.42,17.42,0,0,1,1.16,7.08,17.72,17.72,0,0,1-1.17,7.16" fill="#fff"/></g></g></g></g></g></svg>